<?xml version="1.0" standalone="no"?>
<!DOCTYPE svg>
<svg version="1.0" xmlns="http://www.w3.org/2000/svg"
 width="700.000000pt" height="700.000000pt" viewBox="0 0 700.000000 700.000000"
 preserveAspectRatio="xMidYMid meet">
<g transform="translate(0.000000,700.000000) scale(0.100000,-0.100000)"
fill="#000000" stroke="none">
<path d="M3038 6783 c-24 -28 -44 -76 -42 -103 2 -26 34 -201 58 -310 14 -63
24 -137 32 -230 2 -25 6 -67 8 -95 3 -27 8 -77 11 -110 3 -33 8 -76 10 -95 3
-19 7 -71 10 -115 3 -44 8 -91 10 -105 2 -14 6 -56 10 -95 3 -38 8 -86 10
-105 2 -19 7 -62 10 -95 7 -70 11 -118 24 -235 5 -47 9 -92 9 -100 0 -8 3 -53
7 -100 3 -47 7 -123 9 -170 3 -47 8 -132 12 -190 11 -149 11 -770 0 -925 -5
-71 -10 -330 -10 -575 l-1 -445 -35 1 c-19 0 -52 3 -72 7 -21 4 -55 9 -75 12
-21 3 -44 8 -51 10 -7 3 -39 8 -70 11 -111 12 -238 61 -291 113 -60 59 -76
105 -76 221 1 121 24 218 104 433 71 193 85 262 83 412 -2 159 -25 270 -109
530 -75 231 -161 428 -255 583 -21 34 -38 64 -38 67 0 13 -175 263 -244 350
-100 125 -123 150 -217 250 -41 44 -102 109 -135 144 -86 92 -187 187 -279
262 -16 13 -68 61 -115 105 -172 165 -223 198 -355 235 -150 41 -239 -4 -261
-131 -13 -72 -8 -112 40 -350 50 -250 54 -270 62 -320 7 -45 29 -163 59 -315
13 -66 27 -142 31 -170 3 -27 7 -59 9 -70 2 -11 6 -42 9 -70 4 -27 8 -63 11
-80 7 -47 15 -102 20 -153 3 -26 8 -54 10 -62 2 -8 7 -40 10 -70 3 -30 10 -77
15 -105 5 -27 16 -102 25 -165 18 -133 22 -160 36 -255 14 -93 15 -100 28
-170 12 -67 28 -181 36 -253 15 -139 20 -182 30 -292 3 -36 8 -72 10 -80 2 -8
7 -35 10 -60 3 -25 12 -85 20 -135 8 -49 23 -151 35 -225 12 -74 27 -175 35
-225 8 -49 17 -108 20 -130 3 -23 8 -52 10 -65 3 -14 10 -54 15 -90 5 -36 12
-76 15 -90 3 -14 10 -54 15 -90 6 -36 15 -87 20 -115 6 -27 17 -86 26 -130 8
-44 24 -120 35 -170 12 -49 22 -97 24 -105 6 -30 28 -109 80 -295 30 -104 59
-213 65 -242 18 -83 29 -88 189 -88 147 0 231 8 277 25 63 25 286 71 639 134
347 62 652 119 684 127 16 4 15 6 116 -200 91 -185 142 -260 259 -376 112
-111 237 -200 366 -260 47 -22 92 -44 100 -50 8 -6 71 -39 140 -74 114 -57
131 -63 187 -62 67 0 118 17 170 57 41 31 86 121 193 381 44 106 92 218 108
250 81 162 119 348 121 600 1 98 4 179 5 181 2 1 16 5 32 7 83 14 87 14 264
50 149 30 158 32 201 39 69 12 96 18 209 46 255 65 284 78 336 145 29 39 37
104 22 182 -5 26 -13 68 -18 93 -4 25 -26 122 -48 215 -34 141 -75 336 -96
455 -9 48 -37 195 -51 265 -8 39 -16 84 -19 100 -7 40 -67 340 -80 405 -3 14
-10 45 -15 70 -5 25 -14 72 -20 105 -6 33 -25 130 -42 215 -17 85 -33 166 -35
180 -11 57 -59 238 -114 430 -33 113 -66 230 -74 260 -7 30 -39 134 -71 230
-31 96 -81 265 -111 375 -76 275 -152 428 -237 471 -45 24 -101 19 -153 -11
-48 -28 -70 -56 -77 -96 -10 -51 -62 -169 -215 -479 -260 -530 -326 -704 -369
-975 -10 -62 -10 -385 -1 -441 21 -123 130 -306 251 -421 41 -39 120 -99 176
-133 56 -35 109 -69 117 -77 27 -27 17 -100 -22 -172 -47 -86 -158 -232 -227
-300 -64 -62 -45 -74 -176 104 -273 372 -432 656 -566 1013 -70 185 -217 624
-266 792 -12 41 -28 95 -36 120 -13 39 -163 717 -178 800 -3 17 -12 58 -20 92
-8 35 -16 74 -19 88 -2 14 -18 90 -35 170 -17 80 -34 159 -37 175 -9 56 -84
370 -95 405 -7 19 -18 45 -26 57 -31 48 -135 70 -165 36z m-1807 -1096 c107
-106 237 -240 291 -297 162 -176 392 -461 496 -615 89 -132 227 -387 263 -485
49 -136 150 -500 154 -556 4 -69 -19 -189 -51 -261 -25 -55 -102 -271 -109
-303 -15 -76 -20 -122 -24 -217 -1 -20 -6 -23 -48 -23 -59 -1 -168 -24 -378
-81 -88 -23 -180 -43 -205 -43 -50 -1 -42 -13 -65 113 -4 18 -9 43 -12 55 -8
37 -23 110 -28 141 -3 17 -8 41 -10 55 -7 33 -11 56 -35 185 -11 61 -24 133
-30 160 -5 28 -23 124 -40 215 -17 91 -41 224 -55 295 -14 72 -27 148 -30 170
-14 90 -51 306 -90 515 -22 113 -26 141 -75 440 -23 143 -26 159 -45 255 -8
39 -17 88 -20 110 -7 46 -9 58 -23 140 -23 131 -36 225 -30 225 3 0 92 -87
199 -193z m3893 -378 c19 -64 49 -176 66 -250 17 -74 37 -156 45 -184 97 -335
126 -439 131 -471 3 -22 16 -93 29 -159 13 -66 27 -133 29 -150 3 -16 8 -40
10 -52 3 -12 12 -73 21 -135 19 -134 20 -138 39 -253 29 -183 29 -172 -2 -180
-41 -10 -61 -14 -124 -19 -32 -2 -61 -7 -66 -10 -4 -2 -30 31 -56 74 -63 104
-77 117 -216 199 -166 100 -261 200 -315 336 -24 58 -29 87 -30 170 -4 175 23
339 87 530 22 66 46 131 54 145 7 14 27 59 45 100 35 82 48 111 133 277 31 62
61 125 67 140 6 16 13 24 15 18 2 -5 19 -62 38 -126z m-1534 -1078 c0 -62 163
-497 258 -688 77 -155 108 -210 215 -383 143 -229 253 -391 316 -462 13 -15
32 -41 42 -57 18 -29 17 -30 -5 -63 -45 -67 -97 -162 -122 -222 -14 -33 -29
-70 -34 -81 -5 -11 -21 -60 -36 -110 -14 -49 -28 -92 -30 -94 -1 -2 -24 15
-51 37 -64 53 -135 91 -273 146 -63 24 -167 68 -230 95 -63 28 -120 51 -126
51 -33 0 -36 27 -34 377 0 191 2 373 4 403 8 115 18 225 21 230 2 3 6 39 9 80
19 220 26 293 31 300 7 11 18 181 20 315 4 166 3 155 15 155 6 0 10 -13 10
-29z m1825 -1076 c11 -2 61 -4 112 -4 l92 -1 11 -53 c6 -29 13 -66 16 -81 7
-38 49 -192 107 -391 19 -66 51 -185 71 -265 20 -80 41 -155 46 -166 8 -20 3
-23 -78 -43 -48 -12 -97 -24 -109 -26 -13 -3 -33 -7 -45 -10 -41 -9 -202 -34
-263 -40 -33 -3 -98 -15 -145 -25 -53 -12 -89 -15 -96 -9 -6 5 -24 39 -39 76
-57 138 -195 393 -232 432 -13 13 -22 28 -21 32 2 5 35 41 73 81 137 142 227
265 311 422 l47 88 61 -6 c34 -4 70 -8 81 -11z m-3118 -513 c6 -4 34 -41 61
-82 103 -157 208 -223 442 -279 47 -11 119 -25 160 -30 130 -19 252 -56 278
-85 12 -13 24 -48 30 -91 34 -222 74 -454 82 -479 13 -39 13 -42 -11 -43 -21
-2 -102 -18 -186 -37 -10 -2 -56 -12 -103 -21 -47 -9 -137 -28 -200 -42 -63
-14 -133 -29 -155 -34 -22 -5 -50 -10 -62 -13 -12 -3 -56 -6 -97 -7 -126 -4
-374 -49 -561 -104 -94 -27 -135 -26 -135 3 -5 173 -10 221 -40 402 -10 63
-21 131 -24 150 -7 49 -28 150 -81 405 -59 279 -61 293 -44 299 8 2 64 7 124
10 61 3 153 13 205 20 52 8 115 17 140 20 25 3 70 14 100 25 68 23 63 22 77
13z m2398 -427 c18 -38 39 -89 47 -113 8 -24 22 -52 31 -63 10 -10 17 -34 17
-53 l0 -33 -92 -26 c-152 -41 -197 -51 -203 -45 -24 24 28 242 91 377 l35 76
21 -25 c12 -14 36 -56 53 -95z m-1136 -169 c7 -8 71 -38 144 -66 190 -76 341
-148 355 -171 19 -30 6 -59 -27 -59 -15 0 -69 -14 -121 -31 -88 -28 -147 -44
-258 -71 -29 -7 -47 -7 -54 0 -8 8 -22 65 -43 182 -36 204 -38 230 -16 230 5
0 14 -6 20 -14z m1336 -522 c0 -133 -6 -187 -41 -354 -22 -108 -28 -126 -106
-323 -97 -246 -108 -248 -95 -17 0 14 -2 45 -6 70 -4 25 -10 65 -13 90 -3 25
-17 89 -30 143 -14 54 -29 139 -34 190 -9 92 -31 192 -50 228 -6 10 -9 19 -8
19 48 7 99 17 218 44 80 18 150 32 155 31 6 -1 10 -49 10 -121z m-694 -134 c1
-22 2 -43 3 -47 3 -10 16 -115 22 -173 3 -25 7 -63 10 -85 3 -22 7 -51 9 -65
11 -81 19 -126 41 -220 14 -58 33 -130 44 -161 24 -66 25 -75 5 -59 -8 7 -29
13 -47 15 -40 3 -113 63 -261 215 -120 124 -213 252 -272 375 -31 65 -45 125
-30 125 14 0 366 91 400 104 66 24 75 21 76 -24z"/>
</g>
</svg>
